<?xml version="1.0" encoding="UTF-8"?><svg id="Layer_2" xmlns="http://www.w3.org/2000/svg" viewBox="0 0 600 600"><g id="Components"><g id="_027ca287-ff8f-4809-88f4-5a405b23ea3e_5"><circle id="Outside_Shape" cx="300.0001" cy="300" r="251.9999" style="fill:#fff;"/><path d="M207.6589,371.3532h6.9238l9.7705,26.9268h-6.1934l-2.0771-5.8857h-10.2324l-2.0771,5.8857h-5.9619l9.8477-26.9268ZM214.5056,387.7399l-3.5771-10.2324-3.5391,10.2324h7.1162Z"/><path d="M225.3152,378.5075h5.4238v10.2324c0,1.7959.3076,3.123.9229,3.9814.6152.8594,1.5898,1.2891,2.9238,1.2891,1.3584,0,2.4102-.4814,3.1543-1.4434.7432-.9609,1.1152-2.3516,1.1152-4.1729v-9.8867h5.4238v19.7725h-4.8086l-.5-2.3848c-.6924.8213-1.5,1.4619-2.4229,1.9229-.9238.4619-2.0527.6924-3.3857.6924-2.3076,0-4.1924-.6982-5.6543-2.0957-1.4619-1.3975-2.1924-3.7129-2.1924-6.9434v-10.9639Z"/><path d="M249.6267,383.0856h-3.2705v-4.5781h3.2705v-5.5391h5.4238v5.5391h4.5391v4.5781h-4.5391v8.6553c0,.6924.1465,1.1924.4424,1.5.2939.3076.8008.4619,1.5195.4619h2.6924v4.5771h-4.4238c-3.7695,0-5.6543-1.8848-5.6543-5.6543v-9.54Z"/><path d="M267.6287,371.3532v9.5781c1.4619-1.7695,3.4102-2.6543,5.8477-2.6543,2.3848,0,4.3145.7178,5.7891,2.1543,1.4746,1.4365,2.2119,3.7314,2.2119,6.8857v10.9629h-5.4238v-10.502c0-1.6406-.334-2.8906-1-3.75-.668-.8594-1.668-1.2891-3.001-1.2891-1.3848,0-2.4688.4746-3.25,1.4238-.7832.9482-1.1738,2.2695-1.1738,3.9619v10.1553h-5.4238v-26.9268h5.4238Z"/><path d="M288.9978,397.2604c-1.5771-.833-2.7959-2.0195-3.6543-3.5576-.8594-1.5391-1.2891-3.3086-1.2891-5.3086s.4297-3.7705,1.2891-5.3086c.8584-1.5391,2.0771-2.7246,3.6543-3.5586,1.5771-.833,3.4043-1.25,5.4814-1.25s3.9043.417,5.4814,1.25c1.5771.834,2.7949,2.0195,3.6543,3.5586.8594,1.5381,1.2891,3.3076,1.2891,5.3086,0,2.0254-.4297,3.8018-1.2891,5.3271-.8594,1.5264-2.0771,2.7061-3.6543,3.5391-1.5771.834-3.4043,1.25-5.4814,1.25s-3.9043-.416-5.4814-1.25ZM298.0759,392.5094c.8848-1.0508,1.3271-2.4229,1.3271-4.1152,0-1.6934-.4424-3.0645-1.3271-4.1162-.8848-1.0518-2.084-1.5771-3.5967-1.5771-1.4873,0-2.6729.5254-3.5576,1.5771s-1.3271,2.4229-1.3271,4.1162c0,1.6924.4424,3.0645,1.3271,4.1152.8848,1.0518,2.0703,1.5771,3.5576,1.5771,1.5127,0,2.7119-.5254,3.5967-1.5771Z"/><path d="M312.8289,378.5075l.5,2.9619c.5898-.9736,1.3203-1.7119,2.1924-2.2119.8721-.5,2.0391-.75,3.501-.75h.9229v4.9238h-2.1533c-1.5391,0-2.668.4619-3.3857,1.3848-.7178.9238-1.0771,2.1807-1.0771,3.7705v9.6934h-5.4238v-19.7725h4.9238Z"/><path d="M322.8494,375.526c-.6035-.5762-.9043-1.3008-.9043-2.1729s.3008-1.6025.9043-2.1924c.6016-.5898,1.3516-.8848,2.25-.8848.8975,0,1.6406.2949,2.2314.8848.5889.5898.8848,1.3203.8848,2.1924s-.2959,1.5967-.8848,2.1729c-.5908.5771-1.334.8662-2.2314.8662-.8984,0-1.6484-.2891-2.25-.8662ZM327.8308,378.5075v19.7725h-5.4629v-19.7725h5.4629Z"/><path d="M347.7185,378.5075v3.6934l-9.8857,11.502h10.3477v4.5771h-17.6562v-3.6934l9.8857-11.501h-9.4248v-4.5781h16.7334Z"/><path d="M354.3347,397.2799c-1.5898-.8203-2.8076-1.9941-3.6543-3.5195-.8457-1.5254-1.2695-3.3018-1.2695-5.3281s.4238-3.8086,1.2695-5.3467c.8467-1.5391,2.0322-2.7246,3.5586-3.5586,1.5254-.833,3.3018-1.25,5.3271-1.25,1.9492,0,3.6797.3916,5.1934,1.1729,1.5127.7832,2.6865,1.8848,3.5195,3.3086.834,1.4229,1.2637,3.0967,1.2891,5.0195,0,.6924-.0518,1.3086-.1543,1.8467h-14.3477v.2695c.0508,1.3848.4932,2.4814,1.3271,3.2891.833.8076,1.9424,1.2119,3.3271,1.2119,1.1025,0,2.0195-.2373,2.75-.7119.7314-.4746,1.2119-1.1738,1.4434-2.0967h5.3467c-.2061,1.3076-.7119,2.4873-1.5195,3.5391-.8076,1.0518-1.8789,1.8789-3.2119,2.4814-1.334.6025-2.8604.9033-4.5781.9033-2.1543,0-4.0264-.4092-5.6162-1.2305ZM362.6443,383.2965c-.7959-.6533-1.8086-.9805-3.0391-.9805-1.1797,0-2.1738.3398-2.9814,1.0195-.8076.6797-1.2891,1.5957-1.4424,2.75h8.9248c-.1797-1.2051-.668-2.1348-1.4619-2.7891Z"/><path d="M392.3025,371.3532v26.9268h-4.7314l-.5391-2.7314c-1.5127,1.9756-3.5391,2.9619-6.0771,2.9619-1.7695,0-3.3535-.4092-4.751-1.2305-1.3984-.8203-2.4883-2-3.2695-3.5391-.7832-1.5391-1.1738-3.334-1.1738-5.3857,0-2,.3906-3.7627,1.1738-5.2891.7812-1.5254,1.8711-2.7051,3.2695-3.5391,1.3975-.833,2.9678-1.25,4.7119-1.25,2.5645,0,4.5518.8975,5.9629,2.6924v-9.6162h5.4238ZM378.6277,384.278c-.8848,1.0518-1.3271,2.4229-1.3271,4.1162,0,1.6924.4424,3.0645,1.3271,4.1152.8848,1.0518,2.0576,1.5771,3.5195,1.5771s2.6279-.5186,3.5-1.5576c.8721-1.0381,1.3086-2.4043,1.3086-4.0967,0-1.7178-.4365-3.1025-1.3086-4.1543s-2.0381-1.5771-3.5-1.5771-2.6348.5254-3.5195,1.5771Z"/><path d="M174.6921,417.5143v4.9619h-7.8096v21.9648h-5.7695v-21.9648h-7.7705v-4.9619h21.3496Z"/><path d="M180.5769,424.6686l.5,2.9619c.5898-.9736,1.3203-1.7119,2.1924-2.2119s2.0391-.75,3.501-.75h.9229v4.9238h-2.1533c-1.5391,0-2.668.4619-3.3857,1.3848-.7178.9238-1.0771,2.1807-1.0771,3.7705v9.6934h-5.4238v-19.7725h4.9238Z"/><path d="M192.0789,426.1881c1.6406-1.167,3.7695-1.75,6.3857-1.75,2.7949,0,4.9492.6152,6.4629,1.8467,1.5127,1.2305,2.2695,3.0137,2.2695,5.3467v7.001c0,.4873.0957.8145.2881.9805.1924.168.5195.251.9814.251h.6152v4.5771h-2.7695c-2.4883,0-3.7061-1.0771-3.6543-3.2314-.7188,1.1289-1.6035,1.9883-2.6543,2.5771-1.0518.5908-2.3213.8848-3.8086.8848-2.2061,0-3.9814-.5059-5.3281-1.5195-1.3457-1.0127-2.0195-2.4424-2.0195-4.2891,0-2.1025.7754-3.7246,2.3271-4.8662,1.5518-1.1406,3.8018-1.7109,6.752-1.7109h3.9229v-.9619c0-.8975-.3076-1.6094-.9229-2.1348s-1.4873-.7891-2.6162-.7891c-1.0518,0-1.9102.2188-2.5771.6543-.667.4365-1.0645,1.0254-1.1924,1.7695h-5.2314c.2051-1.9238,1.1279-3.4688,2.7695-4.6357ZM195.2527,436.5749c-.6289.4482-.9424,1.083-.9424,1.9033,0,.6924.2627,1.2441.7881,1.6543.5254.4111,1.2373.6152,2.1348.6152,1.4102,0,2.5264-.4033,3.3467-1.2109.8213-.8086,1.2441-1.8916,1.2695-3.251v-.3848h-3.9619c-1.1289,0-2.0068.2246-2.6348.6738Z"/><path d="M211.6785,421.6872c-.6035-.5762-.9043-1.3008-.9043-2.1729s.3008-1.6025.9043-2.1924c.6016-.5898,1.3516-.8848,2.25-.8848.8975,0,1.6406.2949,2.2314.8848.5889.5898.8848,1.3203.8848,2.1924s-.2959,1.5967-.8848,2.1729c-.5908.5771-1.334.8662-2.2314.8662-.8984,0-1.6484-.2891-2.25-.8662ZM216.6599,424.6686v19.7725h-5.4629v-19.7725h5.4629Z"/><path d="M225.1228,424.6686l.5,2.4619c.6924-.8457,1.5254-1.5059,2.501-1.9805.9736-.4746,2.1787-.7119,3.6152-.7119,2.3594,0,4.2705.7119,5.7324,2.1348,1.4609,1.4229,2.1924,3.7256,2.1924,6.9053v10.9629h-5.4238v-10.4248c0-3.4102-1.334-5.1162-4.001-5.1162-1.4102,0-2.5.4746-3.2695,1.4238-.7695.9482-1.1543,2.2822-1.1543,4v10.1172h-5.4238v-19.7725h4.7314Z"/><path d="M243.5681,421.6872c-.6035-.5762-.9043-1.3008-.9043-2.1729s.3008-1.6025.9043-2.1924c.6016-.5898,1.3516-.8848,2.25-.8848.8975,0,1.6406.2949,2.2314.8848.5889.5898.8848,1.3203.8848,2.1924s-.2959,1.5967-.8848,2.1729c-.5908.5771-1.334.8662-2.2314.8662-.8984,0-1.6484-.2891-2.25-.8662ZM248.5496,424.6686v19.7725h-5.4629v-19.7725h5.4629Z"/><path d="M257.0115,424.6686l.5,2.4619c.6924-.8457,1.5254-1.5059,2.501-1.9805.9736-.4746,2.1787-.7119,3.6152-.7119,2.3594,0,4.2705.7119,5.7324,2.1348,1.4609,1.4229,2.1924,3.7256,2.1924,6.9053v10.9629h-5.4238v-10.4248c0-3.4102-1.334-5.1162-4.001-5.1162-1.4102,0-2.5.4746-3.2695,1.4238-.7695.9482-1.1543,2.2822-1.1543,4v10.1172h-5.4238v-19.7725h4.7314Z"/><path d="M281.6121,447.4801c.7559.5127,1.75.7695,2.9814.7695,1.5381,0,2.7314-.3848,3.5771-1.1543.8467-.7695,1.2695-1.9111,1.2695-3.4238v-2.0771c-1.4365,1.8213-3.4756,2.7314-6.1162,2.7314-1.7441,0-3.3086-.4102-4.6934-1.2314-1.3848-.8203-2.4688-1.9805-3.25-3.4814-.7832-1.5-1.1738-3.25-1.1738-5.25,0-1.9746.3906-3.7188,1.1738-5.2314.7812-1.5137,1.8711-2.6797,3.2695-3.501,1.3975-.8203,2.9678-1.2314,4.7119-1.2314,2.5898,0,4.6416,1.001,6.1553,3.001l.4619-2.7314h4.7695v19.1953c0,2.5898-.8594,4.6543-2.5771,6.1934-1.7188,1.5391-4.3857,2.3076-8.001,2.3076-2.7959,0-5.0527-.6152-6.7705-1.8457-1.7188-1.2314-2.6416-2.9756-2.7695-5.2314h5.4619c.2559.9482.7627,1.6787,1.5195,2.1924ZM288.0935,430.362c-.8721-1.0508-2.0381-1.5771-3.5-1.5771s-2.6348.5195-3.5195,1.5576c-.8848,1.0391-1.3271,2.3916-1.3271,4.0586s.4424,3.0137,1.3271,4.0391c.8848,1.0264,2.0576,1.5391,3.5195,1.5391s2.6279-.5127,3.5-1.5391c.8721-1.0254,1.3086-2.3594,1.3086-4.001,0-1.666-.4365-3.0254-1.3086-4.0771Z"/><path d="M324.5417,418.61c1.4746.7314,2.6162,1.7764,3.4238,3.1357.8076,1.3594,1.2119,2.9365,1.2119,4.7314s-.4043,3.3652-1.2119,4.7119c-.8076,1.3467-1.9492,2.3848-3.4238,3.1162-1.4746.7305-3.1738,1.0957-5.0967,1.0957h-5.1934v9.04h-5.7705v-26.9268h10.9639c1.9229,0,3.6221.3652,5.0967,1.0957ZM314.2517,430.5924h4.6543c1.3594,0,2.4365-.3711,3.2314-1.1152.7949-.7432,1.1924-1.7432,1.1924-3,0-1.2822-.3975-2.2949-1.1924-3.0391-.7949-.7441-1.8721-1.1162-3.2314-1.1162h-4.6543v8.2705Z"/><path d="M333.2927,426.1881c1.6406-1.167,3.7695-1.75,6.3857-1.75,2.7949,0,4.9492.6152,6.4629,1.8467,1.5127,1.2305,2.2695,3.0137,2.2695,5.3467v7.001c0,.4873.0957.8145.2881.9805.1924.168.5195.251.9814.251h.6152v4.5771h-2.7695c-2.4883,0-3.7061-1.0771-3.6543-3.2314-.7188,1.1289-1.6035,1.9883-2.6543,2.5771-1.0518.5908-2.3213.8848-3.8086.8848-2.2061,0-3.9814-.5059-5.3281-1.5195-1.3457-1.0127-2.0195-2.4424-2.0195-4.2891,0-2.1025.7754-3.7246,2.3271-4.8662,1.5518-1.1406,3.8018-1.7109,6.752-1.7109h3.9229v-.9619c0-.8975-.3076-1.6094-.9229-2.1348s-1.4873-.7891-2.6162-.7891c-1.0518,0-1.9102.2188-2.5771.6543-.667.4365-1.0645,1.0254-1.1924,1.7695h-5.2314c.2051-1.9238,1.1279-3.4688,2.7695-4.6357ZM336.4665,436.5749c-.6289.4482-.9424,1.083-.9424,1.9033,0,.6924.2627,1.2441.7881,1.6543.5254.4111,1.2373.6152,2.1348.6152,1.4102,0,2.5264-.4033,3.3467-1.2109.8213-.8086,1.2441-1.8916,1.2695-3.251v-.3848h-3.9619c-1.1289,0-2.0068.2246-2.6348.6738Z"/><path d="M357.3347,424.6686l.5,2.9619c.5898-.9736,1.3203-1.7119,2.1924-2.2119s2.0391-.75,3.501-.75h.9229v4.9238h-2.1533c-1.5391,0-2.668.4619-3.3857,1.3848-.7178.9238-1.0771,2.1807-1.0771,3.7705v9.6934h-5.4238v-19.7725h4.9238Z"/><path d="M369.1453,429.2467h-3.2705v-4.5781h3.2705v-5.5391h5.4238v5.5391h4.5391v4.5781h-4.5391v8.6553c0,.6924.1465,1.1924.4424,1.5.2939.3076.8008.4619,1.5195.4619h2.6924v4.5771h-4.4238c-3.7695,0-5.6543-1.8848-5.6543-5.6543v-9.54Z"/><path d="M386.4548,424.6686l.5,2.4619c.6924-.8457,1.5254-1.5059,2.501-1.9805.9736-.4746,2.1787-.7119,3.6152-.7119,2.3594,0,4.2705.7119,5.7324,2.1348,1.4609,1.4229,2.1924,3.7256,2.1924,6.9053v10.9629h-5.4238v-10.4248c0-3.4102-1.334-5.1162-4.001-5.1162-1.4102,0-2.5.4746-3.2695,1.4238-.7695.9482-1.1543,2.2822-1.1543,4v10.1172h-5.4238v-19.7725h4.7314Z"/><path d="M408.4968,443.4411c-1.5898-.8203-2.8076-1.9941-3.6543-3.5195-.8457-1.5254-1.2695-3.3018-1.2695-5.3281s.4238-3.8086,1.2695-5.3467c.8467-1.5391,2.0322-2.7246,3.5586-3.5586,1.5254-.833,3.3018-1.25,5.3271-1.25,1.9492,0,3.6797.3916,5.1934,1.1729,1.5127.7832,2.6865,1.8848,3.5195,3.3086.834,1.4229,1.2637,3.0967,1.2891,5.0195,0,.6924-.0518,1.3086-.1543,1.8467h-14.3477v.2695c.0508,1.3848.4932,2.4814,1.3271,3.2891.833.8076,1.9424,1.2119,3.3271,1.2119,1.1025,0,2.0195-.2373,2.75-.7119.7314-.4746,1.2119-1.1738,1.4434-2.0967h5.3467c-.2061,1.3076-.7119,2.4873-1.5195,3.5391-.8076,1.0518-1.8789,1.8789-3.2119,2.4814-1.334.6025-2.8604.9033-4.5781.9033-2.1543,0-4.0264-.4092-5.6162-1.2305ZM416.8064,429.4577c-.7959-.6533-1.8086-.9805-3.0391-.9805-1.1797,0-2.1738.3398-2.9814,1.0195-.8076.6797-1.2891,1.5957-1.4424,2.75h8.9248c-.1797-1.2051-.668-2.1348-1.4619-2.7891Z"/><path d="M431.616,424.6686l.5,2.9619c.5898-.9736,1.3203-1.7119,2.1924-2.2119.8721-.5,2.0391-.75,3.501-.75h.9229v4.9238h-2.1533c-1.5391,0-2.668.4619-3.3857,1.3848-.7178.9238-1.0771,2.1807-1.0771,3.7705v9.6934h-5.4238v-19.7725h4.9238Z"/><g id="Logo_Mark"><path d="M273.5807,280.4743c0-11.5743,9.3817-20.956,20.956-20.956v-20.9575h-83.8258v20.9575c11.5727,0,20.956,9.3817,20.956,20.956s-9.3833,20.9575-20.956,20.9575v20.956h83.8258v-20.956c-11.5743,0-20.956-9.3832-20.956-20.9575Z" style="fill:#fff;"/><path d="M343.5472,189.5403c-.0048-23.1438-18.7683-41.9024-41.9121-41.9024v83.8257c23.1438,0,41.9072-18.7601,41.9121-41.9039.0048,23.1438,18.7686,41.9039,41.9139,41.9039v-83.8257c-23.1453,0-41.9091,18.7586-41.9139,41.9024Z" style="fill:#fff;"/><path d="M265.723,189.55h-39.2938v-26.1955h39.2938c7.2345,0,13.0987,5.864,13.0987,13.0969s-5.8642,13.0986-13.0987,13.0986ZM268.3428,147.7609c-.8639-.0793-1.7361-.1246-2.6197-.1246h-55.0121v83.8273h15.7182v-26.197h39.2938c.8837,0,1.7558-.0454,2.6197-.1232,14.6859-1.3249,26.1955-13.6616,26.1955-28.692s-11.5096-27.3669-26.1955-28.6905Z" style="fill:#fff;"/><path d="M301.6351,322.3878v-23.7212l23.7216,23.7212h-23.7216Z" style="fill:#fff;"/><path d="M349.45,322.3878l-47.8149-47.8131v-24.0937l71.9086,71.9067h-24.0937Z" style="fill:#fff;"/><path d="M385.457,238.5514v23.4627l-23.4623-23.4627h23.4623Z" style="fill:#fff;"/><path d="M385.4626,310.2085l-71.6478-71.6478h24.0918l47.556,47.5541v24.0937Z" style="fill:#fff;"/><path d="M396.6237,314.4085h1.7437l2.8336,6.4399,2.7968-6.4399h1.765v7.9793h-1.2595v-6.2335l-2.72,6.2335h-1.1806l-2.704-6.2335v6.2335h-1.2568l-.0181-7.9793ZM392.1941,315.5331h-2.3628v-1.1246h5.9664v1.1246h-2.3468v6.8547h-1.2568v-6.8547Z" style="fill:#fff;"/></g><path d="M300,0C134.3147,0,0,134.3146,0,300s134.3147,300,300,300,300-134.3146,300-300S465.6855,0,300,0ZM300,552c-139.1757,0-252-112.8242-252-252S160.8243,48,300,48s252,112.8243,252,252-112.8242,252-252,252Z"/><path d="M260.1755,571.6071c.5781-.5986.9277-1.2939,1.0498-2.084.1523-.9883-.0254-1.7998-.5342-2.4355-.5098-.6348-1.248-1.0273-2.2168-1.1768-1.0078-.1562-1.8691.0449-2.582.6025-.7139.5576-1.1553,1.3906-1.3262,2.4971l-.0508.3262-4.2988-.6641.0918-.5928c.2012-1.3047.6943-2.4375,1.4805-3.3984.7861-.9609,1.8086-1.6533,3.0674-2.0762,1.2598-.4229,2.6602-.5156,4.2021-.2773,2.3916.3691,4.1484,1.2471,5.2695,2.6348,1.1211,1.3877,1.5293,3.0693,1.2246,5.0459-.2197,1.4229-.7568,2.6055-1.6104,3.5459-.8535.9414-2.1016,1.8818-3.7441,2.8223l-5.2412,3.0762,9.043,1.3955-.5537,3.5879-15.2393-2.3535.5078-3.291,8.8936-5.3047c1.1328-.6543,1.9893-1.2813,2.5674-1.8799Z" style="fill:#fff;"/><path d="M278.4431,569.5221c.8076-1.501,1.8867-2.6318,3.2373-3.3945,1.3506-.7617,2.8652-1.1006,4.543-1.0146,1.6973.0869,3.1797.5781,4.4453,1.4736,1.2666.8965,2.2246,2.1318,2.875,3.707.6504,1.5752.9229,3.3916.8184,5.4482l-.0488.959c-.1074,2.0977-.5645,3.8916-1.3721,5.3818-.8066,1.4912-1.8857,2.6123-3.2354,3.3643-1.3506.7529-2.875,1.085-4.5723.998-1.6973-.0859-3.1748-.5723-4.4307-1.458-1.2568-.8848-2.2109-2.1104-2.8613-3.6758-.6514-1.5645-.9229-3.3965-.8164-5.4932l.0488-.959c.1055-2.0566.5615-3.8359,1.3691-5.3369ZM289.1081,570.6823c-.7295-1.209-1.7529-1.8467-3.0713-1.9141-1.2988-.0664-2.3721.4648-3.2207,1.5928-.8486,1.1279-1.3271,2.751-1.4346,4.8682l-.0342.6592c-.1084,2.1172.2021,3.7803.9316,4.9893.7295,1.209,1.7432,1.8457,3.041,1.9121,1.3184.0674,2.4023-.4629,3.251-1.5908s1.3271-2.751,1.4355-4.8682l.0332-.6592c.1084-2.1172-.2021-3.7803-.9316-4.9893Z" style="fill:#fff;"/><path d="M316.3308,573.9967c.4463-.7031.6484-1.4541.6084-2.2529-.0498-.999-.3877-1.7578-1.0146-2.2773-.626-.5195-1.4297-.7549-2.4082-.7061-1.0186.0508-1.8213.4209-2.4072,1.1113-.5869.6904-.8516,1.5947-.7959,2.7129l.0166.3301-4.3447.2168-.0303-.5996c-.0654-1.3184.1895-2.5273.7656-3.6279.5762-1.0996,1.4375-1.9834,2.5859-2.6514,1.1484-.668,2.501-1.041,4.0596-1.1191,2.417-.1201,4.3145.3857,5.6924,1.5186,1.3779,1.1328,2.1172,2.6982,2.2168,4.6953.0723,1.4375-.2158,2.7041-.8613,3.7979-.6475,1.0938-1.6797,2.2666-3.0986,3.5186l-4.5127,4.0693,9.1387-.4551.1807,3.625-15.4014.7686-.166-3.3262,7.6416-6.9893c.9775-.8701,1.6895-1.6562,2.1348-2.3594Z" style="fill:#fff;"/><path d="M334.7585,578.3161c-.5088-1.1572-.8711-2.4473-1.0869-3.8711-.3447-2.2734-.293-4.2744.1533-6.001.4463-1.7256,1.25-3.1016,2.4092-4.127,1.1602-1.0254,2.6094-1.6689,4.3496-1.9326,1.9775-.2998,3.7305-.0137,5.2578.8574,1.5273.8721,2.5508,2.2187,3.0693,4.041l-4.2119.6377c-.3232-.8008-.8252-1.377-1.5059-1.7285-.6807-.3525-1.4854-.458-2.4141-.3174-1.3457.2031-2.3008.874-2.8662,2.0117-.5664,1.1377-.7041,2.665-.4141,4.583l.0762.5049.2002-.4854c.3604-.8232.9424-1.5186,1.7471-2.085s1.7305-.9297,2.7783-1.0889c1.3848-.209,2.6504-.0977,3.7988.3359,1.1465.4326,2.0977,1.1338,2.8516,2.1016.7529.9678,1.2344,2.1445,1.4443,3.5283.2119,1.4043.0781,2.6885-.4033,3.8535-.4805,1.165-1.2656,2.1289-2.3535,2.8906-1.0889.7607-2.3936,1.2568-3.916,1.4873-1.4238.2158-2.7373.126-3.9404-.2686-1.2021-.3936-2.249-1.0596-3.1387-1.9971-.748-.7969-1.376-1.7744-1.8848-2.9307ZM344.783,573.3844c-.7266-.5879-1.6133-.8018-2.6611-.6436-1.0488.1582-1.8516.6289-2.4111,1.4121-.5596.7822-.7549,1.7275-.5869,2.834.167,1.1084.624,1.9541,1.3701,2.5391.7461.585,1.6426.7979,2.6914.6396,1.0479-.1592,1.8408-.6279,2.3809-1.4072.5391-.7803.7256-1.7227.5576-2.8311-.168-1.1074-.6143-1.9551-1.3408-2.543Z" style="fill:#fff;"/><path d="M15.9246,325.32c.417-1.1221,1.0879-2.0273,2.0107-2.7158.9229-.6875,2.0342-1.0986,3.334-1.2344,1.2988-.1357,2.4668.0381,3.5029.5205,1.0352.4834,1.874,1.2314,2.5146,2.2432.6406,1.0127,1.0332,2.2148,1.1787,3.6074l.3926,3.7588,6.5449-.6836.4355,4.1777-19.4941,2.0361-.8281-7.9365c-.1455-1.3926-.0098-2.6504.4082-3.7734ZM25.3767,331.8639l-.3516-3.3701c-.1025-.9834-.4531-1.7354-1.0518-2.2549-.5986-.5186-1.3525-.7314-2.2627-.6367-.9277.0977-1.6309.4619-2.1094,1.0938-.4785.6318-.666,1.4395-.5635,2.4238l.3516,3.3691,5.9873-.625Z" style="fill:#fff;"/><path d="M15.0212,289.153c.5557-1.0801,1.335-1.9072,2.3369-2.4834,1.0029-.5752,2.1563-.8486,3.4629-.8203,1.25.0273,2.3496.3496,3.2979.9678.9482.6191,1.6621,1.4561,2.1436,2.5117l7.6426-3.6973-.1016,4.6465-6.6514,3.1592-.0771,3.5273,6.5791.1436-.0918,4.1992-19.5957-.4287.1748-7.9775c.0312-1.418.3242-2.668.8799-3.748ZM23.5759,296.8883l.0752-3.4434c.0225-.9893-.2314-1.7842-.7598-2.3838-.5283-.5996-1.25-.9092-2.1641-.9287-.9326-.0205-1.6768.2568-2.2305.833-.5547.5762-.8418,1.3584-.8643,2.3477l-.0752,3.4434,6.0186.1318Z" style="fill:#fff;"/><path d="M33.5662,249.2712c1.376,1.0469,2.374,2.3652,2.9932,3.9551.6201,1.5898.7842,3.3164.4922,5.1787-.293,1.8633-.9766,3.4561-2.0537,4.7793-1.0762,1.3242-2.4297,2.2744-4.0605,2.8496-1.6299.5762-3.376.7178-5.2393.4258-1.8623-.292-3.4814-.9619-4.8574-2.0088s-2.373-2.3652-2.9932-3.9561c-.6201-1.5889-.7842-3.3154-.4922-5.1787.293-1.8623.9775-3.4551,2.0537-4.7793,1.0771-1.3232,2.4307-2.2734,4.0605-2.8496,1.6309-.5752,3.377-.7168,5.2393-.4248,1.8633.292,3.4814.9619,4.8574,2.0088ZM29.7302,262.0749c1.0283-.292,1.8779-.8008,2.5488-1.5273.6719-.7256,1.0908-1.624,1.2588-2.6934.165-1.0508.0391-2.0244-.3779-2.9219-.416-.8965-1.0693-1.6416-1.959-2.2344-.8896-.5928-1.9434-.9854-3.1602-1.1758-1.2178-.1914-2.3398-.1406-3.3682.1514-1.0283.293-1.8779.8018-2.5498,1.5283-.6709.7256-1.0889,1.6143-1.2539,2.665-.168,1.0703-.043,2.0537.373,2.9502.417.8965,1.0703,1.6416,1.96,2.2344.8896.5928,1.9424.9844,3.1602,1.1758,1.2168.1904,2.3398.1406,3.3682-.1523Z" style="fill:#fff;"/><path d="M26.113,217.4919l13.8379,3.958c1.5791.4512,2.6836,1.2383,3.3145,2.3604.6299,1.1221.7168,2.4814.2607,4.0781l-.9941,3.4736-3.4727-.9941.6396-2.2344c.2256-.7891.1992-1.4082-.0801-1.8574-.2803-.4482-.8145-.7861-1.6035-1.0117l-13.0566-3.7344,1.1543-4.0381Z" style="fill:#fff;"/><path d="M38.2859,184.4264l3.3369,1.3809-3.4248,8.2793,4.0615,1.6807,2.7832-6.7266,3.1826,1.3164-2.7832,6.7275,4.1914,1.7334,3.543-8.5635,3.3379,1.3809-5.1484,12.4443-18.1113-7.4932,5.0312-12.1602Z" style="fill:#fff;"/><path d="M65.6472,171.0231c-1.4141.8135-2.958,1.1699-4.6328,1.0693-1.6748-.0996-3.3779-.6475-5.1113-1.6416-1.7314-.9951-3.0566-2.2021-3.9746-3.6221-.917-1.4189-1.3721-2.9609-1.3643-4.625.0078-1.6631.5-3.3447,1.4756-5.0449.7617-1.3271,1.7041-2.3682,2.8262-3.124,1.1221-.7549,2.3379-1.1865,3.6484-1.2949,1.3105-.1084,2.624.1172,3.9375.6777l-2.1191,3.6914c-1.1016-.3311-2.1221-.3252-3.0615.0186-.9395.3428-1.6924,1.0088-2.2588,1.9961-.7812,1.3594-.8887,2.7295-.3242,4.1074.5645,1.3789,1.6807,2.5469,3.3477,3.5039,1.6514.9482,3.2168,1.3242,4.6953,1.1289,1.4785-.1943,2.6035-.9639,3.375-2.3076.585-1.0205.7891-2.0225.6123-3.0068-.1777-.9844-.6875-1.8682-1.5283-2.6523l2.1045-3.667c1.1562.8359,2.0127,1.8545,2.5713,3.0576.5576,1.2031.7822,2.499.6729,3.8887-.1094,1.3906-.5537,2.7656-1.335,4.125-.957,1.668-2.1426,2.9082-3.5566,3.7217Z" style="fill:#fff;"/><path d="M76.9763,120.86l2.875,2.1865-3.4414,4.5234,12.7256,9.6797-2.543,3.3428-12.7246-9.6797-3.4248,4.502-2.874-2.1865,9.4072-12.3682Z" style="fill:#fff;"/><path d="M113.2126,83.4235l13.3789,7.5928-5.1543-14.4316,4.1543-3.4551,12.5322,15.0703-3.0791,2.5596-8.3955-10.0967,4.4775,13.3555-2.626,2.1836-12.3154-6.8389,8.3965,10.0977-3.0781,2.5596-12.5322-15.0703,4.2412-3.5264Z" style="fill:#fff;"/><path d="M148.6746,57.3229l4.2969-2.6328,16.3047,12.9951-3.8437,2.3555-3.5273-2.8623-6.3506,3.8916.9492,4.4424-3.7002,2.2676-4.1289-20.457ZM159.156,64.8893l-6.1113-4.9902,1.6943,7.6963,4.417-2.7061Z" style="fill:#fff;"/><path d="M177.4656,41.4401l3.4854-1.5342,12.5859,7.9512-4.9746-11.3018,3.793-1.6689,7.8965,17.9385-3.5107,1.5459-12.5859-7.9512,4.9746,11.3018-3.7666,1.6582-7.8975-17.9395Z" style="fill:#fff;"/><path d="M218.6931,25.7721l4.8457-1.3887,12.2354,16.8828-4.334,1.2422-2.6338-3.7021-7.1592,2.0518-.2734,4.5342-4.1729,1.1953,1.4922-20.8154ZM226.7703,35.8659l-4.5547-6.4434-.4248,7.8701,4.9795-1.4268Z" style="fill:#fff;"/><path d="M256.9167,35.9919c-1.5107-.6152-2.7559-1.6162-3.7354-3.0049-.9805-1.3877-1.6094-3.0605-1.8877-5.0195-.2812-1.9775-.1396-3.7656.4258-5.3633.5645-1.5986,1.5137-2.9072,2.8496-3.9268,1.335-1.0195,2.9824-1.668,4.9414-1.9463,1.5332-.2188,2.957-.1191,4.2705.2979,1.3125.417,2.4199,1.1074,3.3203,2.0732.9014.9658,1.5332,2.1289,1.8965,3.4912l-4.1582.5918c-.4141-1.0537-1.0498-1.8447-1.9072-2.373-.8574-.5293-1.8682-.7109-3.0322-.5449-1.0723.1523-1.9678.5527-2.6855,1.2021-.7188.6484-1.2227,1.4844-1.5107,2.5049-.2891,1.0215-.3447,2.1514-.1689,3.3896.2705,1.9033.9551,3.3711,2.0547,4.4033,1.0977,1.0313,2.4697,1.4297,4.1152,1.1963,1.2012-.1709,2.2168-.6494,3.0479-1.4375.8311-.7871,1.248-1.832,1.251-3.1328l-.0352-.25-4.8232.6855-.4688-3.2988,8.6768-1.2334,1.5322,10.7842-2.9102.4131-.7471-2.2695c-.4492.8184-1.1221,1.5273-2.0166,2.125-.8955.5996-1.9902.9902-3.2842,1.1738-1.8291.2607-3.5.083-5.0107-.5312Z" style="fill:#fff;"/><path d="M303.4499,13.9645l.0586,3.6113-8.959.1455.0713,4.3955,7.2793-.1182.0557,3.4434-7.2793.1182.0732,4.5352,9.2676-.1504.0586,3.6123-13.4668.2178-.3174-19.5977,13.1582-.2129Z" style="fill:#fff;"/><path d="M330.7068,15.6364l3.5977,14.957,7.0146-13.625,5.3623.6729-2.4404,19.4482-3.9736-.499,1.6357-13.0293-6.6914,12.3945-3.3896-.4248-3.4209-13.665-1.6357,13.0303-3.9727-.499,2.4404-19.4473,5.4736.6865Z" style="fill:#fff;"/><path d="M381.2693,25.6852l-.9404,3.4873-8.6514-2.333-1.1445,4.2441,7.0283,1.8955-.8965,3.3252-7.0293-1.8955-1.1807,4.3789,8.9473,2.4141-.9404,3.4873-13.0029-3.5078,5.1045-18.9229,12.7061,3.4268Z" style="fill:#fff;"/><path d="M401.8464,32.6032l3.5176,1.458,2.958,14.5898,4.7256-11.4082,3.8281,1.5859-7.5,18.1084-3.5439-1.4678-2.958-14.5908-4.7256,11.4082-3.8027-1.5752,7.501-18.1084Z" style="fill:#fff;"/><path d="M449.2585,55.9313l-1.8027,3.1299-4.9258-2.8369-7.9805,13.8545-3.6387-2.0967,7.9795-13.8545-4.9004-2.8223,1.8027-3.1299,13.4658,7.7559Z" style="fill:#fff;"/><path d="M489.7556,86.0758l-12.9033,14.7539-3.1611-2.7646,12.9033-14.7539,3.1611,2.7646Z" style="fill:#fff;"/><path d="M505.7517,101.2624l2.5674,2.8125-3.5117,14.4668,9.1191-8.3262,2.7939,3.0605-14.4746,13.2158-2.5869-2.833,3.5127-14.4668-9.1191,8.3252-2.7754-3.04,14.4746-13.2148Z" style="fill:#fff;"/><path d="M520.3943,143.2712c-.0791.9316.2246,1.8867.9082,2.8662.5664.8115,1.2012,1.3525,1.9033,1.625.7021.2725,1.3594.1953,1.9717-.2324.4287-.2998.6699-.6787.7256-1.1387.0547-.459-.0244-.9961-.2373-1.6104s-.5859-1.5322-1.1201-2.7529c-.5381-1.1943-.9043-2.2656-1.0986-3.2109-.1934-.9463-.1357-1.8574.1748-2.7344.3096-.877.9766-1.6729,2.002-2.3887.9492-.6631,1.9648-1.002,3.0469-1.0176,1.082-.0156,2.1445.2832,3.1885.8975s1.9824,1.5186,2.8164,2.7129c.876,1.2539,1.4336,2.4932,1.6729,3.7148.2383,1.2227.1572,2.3545-.2412,3.3965-.4004,1.041-1.1074,1.9277-2.1221,2.6592l-2.3564-3.374c.6348-.5576.9873-1.2363,1.0557-2.0352.0674-.7988-.1865-1.6113-.7637-2.4375-.5352-.7656-1.123-1.2656-1.7646-1.5-.6426-.2344-1.2617-.1436-1.8584.2734-.4287.2988-.665.6689-.71,1.1104s.0361.9648.2432,1.5713c.207.6064.5801,1.5078,1.1191,2.7021.5488,1.21.9268,2.29,1.1338,3.2383s.1621,1.8623-.1348,2.7412c-.2969.8779-.9502,1.6709-1.96,2.376-.9951.6953-2.0566,1.0488-3.1855,1.0635-1.1289.0137-2.2383-.3037-3.3291-.9531-1.0918-.6504-2.0693-1.5947-2.9355-2.834-.9404-1.3467-1.5352-2.6797-1.7832-3.9971-.249-1.3174-.1582-2.5313.2744-3.6406.4316-1.1104,1.1904-2.0439,2.2773-2.8037l2.3564,3.375c-.7686.6279-1.1914,1.4072-1.2695,2.3379Z" style="fill:#fff;"/><path d="M556.8787,174.0055l-3.1973,1.6807-2.6455-5.0312-14.1514,7.4395-1.9541-3.7178,14.1514-7.4395-2.6318-5.0059,3.1973-1.6807,7.2314,13.7549Z" style="fill:#fff;"/><path d="M566.8533,197.0407l-18.2314,7.1953-1.541-3.9072,18.2314-7.1953,1.541,3.9072Z" style="fill:#fff;"/><path d="M577.8542,231.7409l-3.4834.9551-1.502-5.4824-15.4199,4.2266-1.1104-4.0508,15.4199-4.2256-1.4951-5.4551,3.4834-.9551,4.1074,14.9873Z" style="fill:#fff;"/><path d="M582.6765,256.4596l-11.2598,1.5654c-1.5723.2187-2.7129.6885-3.4229,1.4082-.71.7207-.9746,1.7373-.792,3.0508.1826,1.3125.7148,2.2227,1.5957,2.7324.8809.5088,2.1074.6533,3.6787.4355l11.2598-1.5654.5791,4.1592-11.0381,1.5352c-2.7734.3857-4.9854,0-6.6348-1.1553-1.6494-1.1563-2.6553-3.0371-3.0176-5.6445-.3623-2.6064.0928-4.6865,1.3662-6.2393,1.2725-1.5527,3.2959-2.5225,6.0693-2.9072l11.0371-1.5352.5791,4.1602Z" style="fill:#fff;"/><path d="M586.0544,304.654l-3.6113.0586-.0928-5.6836-15.9854.2598-.0684-4.2002,15.9863-.2588-.0918-5.6553,3.6113-.0586.252,15.5381Z" style="fill:#fff;"/><path d="M583.4187,338.7838l-3.5898-.4004.9912-8.9043-4.3691-.4863-.8057,7.2354-3.4229-.3818.8057-7.2354-4.5078-.502-1.0254,9.2119-3.5898-.4004,1.4902-13.3848,19.4795,2.1689-1.4561,13.0791Z" style="fill:#fff;"/><g id="Logo_Mark-2"><path d="M273.5807,280.4743c0-11.5743,9.3817-20.956,20.956-20.956v-20.9575h-83.8258v20.9575c11.5727,0,20.956,9.3817,20.956,20.956s-9.3833,20.9575-20.956,20.9575v20.956h83.8258v-20.956c-11.5743,0-20.956-9.3832-20.956-20.9575Z" style="fill:#15c1e1;"/><path d="M343.5472,189.5403c-.0048-23.1438-18.7683-41.9024-41.9121-41.9024v83.8257c23.1438,0,41.9072-18.7601,41.9121-41.9039.0048,23.1438,18.7686,41.9039,41.9139,41.9039v-83.8257c-23.1453,0-41.9091,18.7586-41.9139,41.9024Z" style="fill:#f05123;"/><path d="M265.723,189.55h-39.2938v-26.1955h39.2938c7.2345,0,13.0987,5.864,13.0987,13.0969s-5.8642,13.0986-13.0987,13.0986ZM268.3428,147.7609c-.8639-.0793-1.7361-.1246-2.6197-.1246h-55.0121v83.8273h15.7182v-26.197h39.2938c.8837,0,1.7558-.0454,2.6197-.1232,14.6859-1.3249,26.1955-13.6616,26.1955-28.692s-11.5096-27.3669-26.1955-28.6905Z"/><path d="M301.6351,322.3878v-23.7212l23.7216,23.7212h-23.7216Z" style="fill:#533693;"/><path d="M349.45,322.3878l-47.8149-47.8131v-24.0937l71.9086,71.9067h-24.0937Z" style="fill:#533693;"/><path d="M385.457,238.5514v23.4627l-23.4623-23.4627h23.4623Z" style="fill:#533693;"/><path d="M385.4626,310.2085l-71.6478-71.6478h24.0918l47.556,47.5541v24.0937Z" style="fill:#533693;"/><path d="M396.6237,314.4085h1.7437l2.8336,6.4399,2.7968-6.4399h1.765v7.9793h-1.2595v-6.2335l-2.72,6.2335h-1.1806l-2.704-6.2335v6.2335h-1.2568l-.0181-7.9793ZM392.1941,315.5331h-2.3628v-1.1246h5.9664v1.1246h-2.3468v6.8547h-1.2568v-6.8547Z" style="fill:#fff;"/></g><path d="M396.6237,314.4085h1.7437l2.8336,6.4399,2.7968-6.4399h1.765v7.9793h-1.2595v-6.2335l-2.72,6.2335h-1.1806l-2.704-6.2335v6.2335h-1.2568l-.0181-7.9793ZM392.1941,315.5331h-2.3628v-1.1246h5.9664v1.1246h-2.3468v6.8547h-1.2568v-6.8547Z"/></g></g></svg>